<?xml version="1.0" encoding="iso-8859-1"?>
<!-- Generator: Adobe Illustrator 19.0.0, SVG Export Plug-In . SVG Version: 6.00 Build 0)  -->
<svg version="1.1" id="Layer_1" xmlns="http://www.w3.org/2000/svg" xmlns:xlink="http://www.w3.org/1999/xlink" x="0px" y="0px"
	 viewBox="0 0 508 508" style="enable-background:new 0 0 508 508;" xml:space="preserve">
<circle style="fill:#FD8469;" cx="254" cy="254" r="254"/>
<g>
	<polygon style="fill:#FFD05B;" points="428.4,358.4 270.4,358.4 300.4,271.2 398.8,271.2 	"/>
	<polygon style="fill:#FFD05B;" points="237.6,358.4 79.6,358.4 109.2,271.2 207.6,271.2 	"/>
	<polygon style="fill:#FFD05B;" points="333.2,237.6 174.8,237.6 204.8,150.4 303.2,150.4 	"/>
</g>
<g>
	<path style="fill:#FFFFFF;" d="M254,70c0,24.4,3.2,30,11.6,21.2c-8.8,8.8-3.2,11.6,21.2,11.6c-24.4,0-30,3.2-21.2,11.6
		c-8.4-8.4-11.6-2.8-11.6,21.6c0-24.4-3.2-30-11.6-21.2c8.8-8.8,3.2-11.6-21.2-11.6c24.4,0,30-3.2,21.2-11.6
		C250.8,100,254,94.8,254,70z"/>
	<path style="fill:#FFFFFF;" d="M140.4,194.8c0,24.4,3.2,30,11.6,21.2c-8.8,8.8-3.2,11.6,21.2,11.6c-24.4,0-30,3.2-21.2,11.6
		c-8.8-8.8-11.6-3.2-11.6,21.2c0-24.4-3.2-30-11.6-21.2c8.8-8.8,3.2-11.6-21.2-11.6c24.4,0,30-3.2,21.2-11.6
		C137.2,224.8,140.4,219.6,140.4,194.8z"/>
	<path style="fill:#FFFFFF;" d="M367.6,194.8c0,24.4,3.2,30,11.6,21.2c-8.8,8.8-3.2,11.6,21.2,11.6c-24.4,0-30,3.2-21.2,11.6
		c-8.8-8.8-11.6-3.2-11.6,21.2c0-24.4-3.2-30-11.6-21.2c8.8-8.8,3.2-11.6-21.2-11.6c24.4,0,30-3.2,21.2-11.6
		C364.8,224.8,367.6,219.6,367.6,194.8z"/>
</g>
<g>
</g>
<g>
</g>
<g>
</g>
<g>
</g>
<g>
</g>
<g>
</g>
<g>
</g>
<g>
</g>
<g>
</g>
<g>
</g>
<g>
</g>
<g>
</g>
<g>
</g>
<g>
</g>
<g>
</g>
</svg>
